<?xml version="1.0" encoding="utf-8"?>
<!-- Generator: Adobe Illustrator 24.1.0, SVG Export Plug-In . SVG Version: 6.00 Build 0)  -->
<svg version="1.1" id="Layer_1" xmlns="http://www.w3.org/2000/svg" xmlns:xlink="http://www.w3.org/1999/xlink" x="0px" y="0px"
	 viewBox="0 0 85 85" style="enable-background:new 0 0 85 85;" xml:space="preserve">
<style type="text/css">
	.st0{fill:#FA4616;}
	.st1{fill:#FFFFFF;}
	.st2{fill:#FFFFFF;stroke:#FA4616;stroke-width:3;stroke-miterlimit:10;}
</style>
<g id="Linkedin_1_">
	<rect id="back-11_1_" class="st0" width="85" height="85"/>
	<g id="Linkedin-2_1_">
		<path class="st1" d="M19.3,34.4h9.9v31.7h-9.9V34.4z M24.2,18.6c3.2,0,5.7,2.6,5.7,5.7S27.4,30,24.3,30s-5.7-2.6-5.7-5.7v0
			C18.5,21.2,21.1,18.6,24.2,18.6"/>
		<path class="st1" d="M35.4,34.4h9.5v4.3H45c1.9-3.3,5.5-5.3,9.3-5.1c10,0,11.8,6.6,11.8,15.1v17.4h-9.9V50.7
			c0-3.7-0.1-8.4-5.1-8.4s-5.9,4-5.9,8.2v15.7h-9.8L35.4,34.4z"/>
	</g>
</g>
</svg>
