<?xml version="1.0" encoding="utf-8"?>
<!-- Generator: Adobe Illustrator 24.1.2, SVG Export Plug-In . SVG Version: 6.00 Build 0)  -->
<svg version="1.1" id="Layer_1" xmlns="http://www.w3.org/2000/svg" xmlns:xlink="http://www.w3.org/1999/xlink" x="0px" y="0px"
	 viewBox="0 0 1919.7 329.9" style="enable-background:new 0 0 1919.7 329.9;" xml:space="preserve">
<style type="text/css">
	.st0{fill:#FFFFFF;enable-background:new    ;}
	.st1{opacity:0.2;fill:#F7401C;enable-background:new    ;}
	.st2{fill:#E6E6E6;}
	.st3{fill:#757575;}
	.st4{fill:#303030;}
	.st5{fill:#CFCFCF;}
	.st6{fill:#777777;}
	.st7{fill:#AFAFAF;}
	.st8{fill:#888888;}
	.st9{fill:#FA4616;}
</style>
<rect id="Rectangle_22_1_" y="155" class="st0" width="1919.7" height="174.8"/>
<g id="Groupe_608" transform="translate(-5840 -749.113)">
	<rect id="Rectangle_22" x="5840" y="904.2" class="st1" width="1919.7" height="174.8"/>
	<g id="Groupe_98" transform="translate(6102.972 684.552)">
		<ellipse id="Ellipse_36" class="st2" cx="385.1" cy="350.3" rx="43.6" ry="5.2"/>
		<path id="Tracé_439" class="st3" d="M378.8,99.2c0,0-7.9,15.8-20.1,19.4s29.5,0,29.5,0s-2.2-11.5,0.7-13S378.8,99.2,378.8,99.2z"
			/>
		<path id="Tracé_440" class="st4" d="M366.1,72c-0.4-3.8,1.6-7.1,4.6-7.4c0,0,0.1,0,0.1,0c-0.4-0.1-0.7-0.1-1.1,0
			c-3,0.3-5,3.7-4.6,7.4c0.4,3.7,3.1,6.4,6,6.2C368.6,77.8,366.4,75.3,366.1,72z"/>
		<path id="Tracé_441" class="st4" d="M368.7,77.1c-3.6-1.2-5.7-4.5-4.7-7.3c0,0,0-0.1,0-0.1c-0.2,0.3-0.4,0.6-0.5,1
			c-1,2.8,1.2,6.1,4.7,7.3c3.5,1.2,7.2-0.1,8.2-2.8C375,77.3,371.8,78.2,368.7,77.1z"/>
		<path id="Tracé_442" class="st3" d="M344,146.4l1.1,30.5l16.5,38.9c0,0-4.3,20.1,4.3,19.4s0.7-20.1,0.7-20.1l-7.9-41l-1.4-33.8
			L344,146.4z"/>
		<circle id="Ellipse_37" class="st3" cx="390.4" cy="94.2" r="15.8"/>
		<path id="Tracé_443" class="st5" d="M403.3,121.5l-15.6-6.2c0,0-3.1,0.5-11.7,1.2s-12.5,0-12.5,0s-18.5,6.4-17.8,10
			c0.7,3.6,8.6,60.4,12.2,57.6c1.7-1.5,3.7-2.7,5.8-3.6l39.6-3.6L403.3,121.5z"/>
		<path id="Tracé_444" class="st5" d="M348.6,125.1h-2.3c0,0-2.7,1.4-2.7,5.8c0,4.3-2.2,17.3-2.2,17.3h11.5L348.6,125.1z"/>
		<path id="Tracé_445" class="st4" d="M369.9,132l-8.7-14c-0.4-0.7-1.2-1-1.9-0.9l-2.3,0.3c-1.1,0.1-1.8,1.1-1.7,2.2c0,0,0,0,0,0
			c0,0.1,0,0.2,0.1,0.3l4.5,16.5c0,0,7,29.2,0.3,44.8l-0.3,7c0,0-6.5,21.6-5,38.1s2.2,30.9,2.2,30.9s-3.6,10.8-2.2,14.4
			c0.4,1.4,0.4,2.9,0,4.4c-1.9,10.5-2.7,21.1-2.3,31.7l0.1,3.5c0,0-5,4.3-0.7,5s18,2.2,18,2.2s2.9-5,1.4-5.8l4.3-23.7
			c0,0,7.2-10.1,6.5-16.5c0,0,2.2-10.8,0-15.8l0.7-31.7l2.9,38.1l-4.3,47.5c0,0-5.8,4.3-2.2,5.8s25.9,8.6,25.9,5s-1.4-5-1.4-5
			L413,219l-5-40.3c0,0-33.8-2.9-30.9-41c0,0,8.3-17.2,16.4-20.4c0.2-0.1,0.4-0.4,0.3-0.6c-0.1-0.1-0.2-0.2-0.3-0.3l-3.3-0.9
			c-0.1,0-0.2,0-0.3,0C388.4,115.9,376,120.4,369.9,132z"/>
		<path id="Tracé_446" class="st4" d="M386.4,315.4l-0.1,1c-0.8,6.6-2.9,12.9-6.3,18.7c-1.6,2.8-2.8,5.9-2.2,8.4
			c1.4,5.8,0.7,7.9,0.7,7.9H390v-2.2l6.4,1.8c1.4,0.4,3,0.4,4.4-0.1c1.7-0.5,2.9-2,2.9-3.8c0-1.8-1.4-3.5-3-4.8
			c-3.4-2.8-5.8-6.5-7-10.7l-0.1-0.3l4.3-15.8L386.4,315.4z"/>
		<path id="Tracé_447" class="st4" d="M356.5,315.8l-0.1,1c-0.8,6.6-2.9,12.9-6.3,18.7c-1.6,2.8-2.8,5.9-2.2,8.4
			c1.4,5.8,0.7,7.9,0.7,7.9h11.5v-2.2l6.4,1.8c1.4,0.4,3,0.4,4.4-0.1c1.7-0.5,2.9-2,2.9-3.8c0-1.8-1.4-3.5-3-4.8
			c-3.4-2.8-5.8-6.5-7-10.7l-0.1-0.3l4.3-15.8L356.5,315.8z"/>
		<path id="Tracé_448" class="st4" d="M393.6,96.8c0,0,11.3-6.6,15.7-6.9c0.7-1.8,0.7-3.9-0.1-5.6c0,0-0.7-8.9-11.8-8.5
			c0,0-13.1-7.1-17.5-4.2s-14.2,16.8-10.1,25.1c0,0-4.8,2.4-5,1.1s-3.8,2.2,0.9,5.2c0,0-6.6,6.6-0.2,10.8c0,0-0.3-5.9,3.4-7.7
			s0.5,0.1,0.5,0.1s-6.3,7.9,3.1,11c0,0-3.5-4,0-7.5c0,0-1.1,8.1,5.4,9c0,0-3.4-4.8-1.6-6.6c0,0,0.8,6,4.4,6.7l2.8,0.5l0.9-4.8
			c0,0-2.6,6.2,3.5,6.5c0,0-3-9.3,1-14.8S393.6,96.8,393.6,96.8z"/>
		
			<ellipse id="Ellipse_38" transform="matrix(0.6038 -0.7972 0.7972 0.6038 88.8218 325.3176)" class="st4" cx="371.7" cy="73.3" rx="6.8" ry="5.4"/>
		<path id="Tracé_449" class="st6" d="M377.5,73c-1.4,0.5-2.7,1.5-3.6,2.7c-0.8,1.1-1.4,2.3-1.6,3.6c1.4-0.5,2.7-1.5,3.6-2.7
			C376.8,75.5,377.3,74.3,377.5,73z"/>
		<path id="Tracé_451" class="st7" d="M434.8,212.3l5.4-7.1l-1.8-2.4l-8.1,3.5l-35.4,24.5l6.3,8.4L434.8,212.3z"/>
		<path id="Tracé_455" class="st8" d="M484.3,180.5c-0.1,0,0.1,0.2,0.1,0.3L484.3,180.5z"/>
		<path id="Tracé_465" class="st8" d="M479.5,204.9C479.6,204.9,479.6,204.9,479.5,204.9C479.6,204.9,479.6,204.8,479.5,204.9
			L479.5,204.9L479.5,204.9z"/>
		<path id="Tracé_466" class="st8" d="M484.5,180.9C484.5,180.9,484.5,180.9,484.5,180.9C484.5,180.9,484.5,180.9,484.5,180.9
			L484.5,180.9z"/>
		<path id="Tracé_474" class="st3" d="M393.6,144.3l1.1,30.5l16.5,38.9c0,0-4.3,20.1,4.3,19.4s0.7-20.1,0.7-20.1l-7.9-41l-1.4-33.8
			L393.6,144.3z"/>
		<path id="Tracé_475" class="st5" d="M399.7,123l0.4-2.7l3.2,1.3l10.1,15.8l-20.9,10.8L399.7,123z"/>
		<g id="Groupe_98-2" transform="translate(341.433 64.561)">
			<path id="Tracé_478" class="st9" d="M142.9,115.9c-0.1,0,0.1,0.2,0.1,0.3L142.9,115.9z"/>
		</g>
		<path class="st5" d="M455.6,186.4c0.5,7.1-1.4,17.3-7,21.9c-5.6,4.7-11.8,6.9-16.1,1.7c-4.3-5.2-3.1-10.3,1.9-14.5
			C442.6,188.7,451.4,195.5,455.6,186.4z"/>
		<path class="st3" d="M439.9,192c-0.8,0.2-0.9,1.3-0.1,1.7c2.2,1.1,3,2.8,3,4.7c0.1,2.4,2.1,5.6,4.1,5.8c2,0.1,1.8,1.9,2.9,3.1
			c1.1,1.2,2.2-1,4-4.5c1.8-3.6,3.7-13.5,2.6-18.5c-2.2,3.5-5.7,5-9.4,5.8C444.9,190.5,442,191.4,439.9,192z"/>
	</g>
	<g>
		<path class="st9" d="M6582.5,889.3L6582.5,889.3c0.1,0.1,0.1,0.1,0.1,0.1C6582.6,889.4,6582.6,889.4,6582.5,889.3L6582.5,889.3z"
			/>
		<path class="st9" d="M6587.5,865.4C6587.5,865.4,6587.5,865.4,6587.5,865.4C6587.5,865.5,6587.5,865.4,6587.5,865.4L6587.5,865.4z
			"/>
		<path class="st9" d="M6587.3,865C6587.3,865,6587.3,865,6587.3,865c0,0.1,0.1,0.2,0.1,0.3l0,0c0,0,0,0,0,0L6587.3,865z"/>
		<path class="st9" d="M6550,874.6c-2.2,0.5-5.1,1.3-7.2,2c-0.4,0.1-0.6,0.5-0.6,0.9c-1.6,0.5-3.2,1.3-4.8,2.7
			c-3.8,3.2-5.4,6.8-4.1,10.7l-13.1,9.1c-0.5-1.5-0.9-2.4-0.9-2.4l-7.9-41l-1.3-31.2l6.4-3.3l-10.1-15.8l-3.2-1.3l0,0l-7-2.8
			c0.1-0.1,0.3-0.1,0.4-0.2c0.2-0.1,0.4-0.4,0.3-0.6c-0.1-0.1-0.2-0.2-0.3-0.3l-3.3-0.9c-0.1,0-0.2,0-0.3,0
			c-0.2,0.1-0.5,0.2-0.9,0.3l-1.2-0.5c0,0,0,0,0,0c-0.2-1.6-0.3-3.5-0.3-5.2c0-0.1,0-0.3,0.1-0.4c0.9,0.2,1.9,0.3,2.8,0.3
			c8.7,0,15.8-7.1,15.8-15.8c0-1.2-0.1-2.3-0.4-3.4c1.3-0.5,2.5-0.8,3.5-0.9c0.7-1.8,0.7-3.9-0.1-5.6c0,0-0.7-8.9-11.8-8.5
			c0,0-13.1-7.1-17.5-4.2c-0.7,0.5-1.6,1.3-2.6,2.3c0.1-0.3,0.1-0.6,0.2-0.8c0.3-2.1-0.2-4-1.7-5.2c-2.4-1.8-6.1-0.8-8.4,2.2
			c-0.5,0.7-1,1.5-1.2,2.3c0-0.1,0-0.2-0.1-0.3c-0.4-3.8,1.6-7.1,4.6-7.4c0,0,0.1,0,0.1,0c-0.4-0.1-0.7-0.1-1.1,0
			c-3,0.3-5,3.7-4.6,7.4c0.1,0.9,0.3,1.7,0.7,2.5c0,0.3,0,0.6,0,0.9c-1.7-1.5-2.4-3.6-1.8-5.6c0,0,0-0.1,0-0.1
			c-0.2,0.3-0.4,0.6-0.5,1c-0.7,2.2,0.4,4.7,2.6,6.2c0.3,0.7,0.8,1.3,1.4,1.8c1.7,1.3,4.1,1.1,6.1-0.1c-3.5,5.5-6.3,12.8-3.8,18
			c0,0-4.8,2.4-5,1.1c-0.2-1.3-3.8,2.2,0.9,5.2c0,0-6.6,6.6-0.2,10.8c0,0-0.3-5.9,3.4-7.7c3.7-1.8,0.5,0.1,0.5,0.1s-3.1,3.9-1.7,7.3
			c-1.3,1.1-2.8,2.2-4.3,3.1c-0.1,0-1.1,0.4-2.7,1c-0.4-0.4-1-0.6-1.6-0.5l-2.3,0.3c-1.1,0.1-1.8,1.1-1.7,2.2c0,0,0,0,0,0
			c0,0.1,0,0.2,0.1,0.3l0,0c-3.7,1.6-7.6,3.6-9,5.4h0c0,0-2.7,1.4-2.7,5.8s-2.2,17.3-2.2,17.3h2.6l1,28.8l11.3,26.4
			c-1.2,7-2.2,15.5-1.5,22.9c1.4,16.6,2.2,30.9,2.2,30.9s-3.6,10.8-2.2,14.4c0.4,1.4,0.4,2.9,0,4.4c-1.9,10.5-2.7,21.1-2.3,31.7
			l0.1,3.5c0,0-5,4.3-0.7,5c1.1,0.2,2.7,0.4,4.6,0.6l0,0c-0.8,6.6-2.9,12.9-6.3,18.7c-1.6,2.8-2.8,5.9-2.2,8.4
			c0.4,1.4,0.6,2.6,0.7,3.6c-4.5,0.8-7.2,1.8-7.2,2.9c0,2.9,19.5,5.2,43.6,5.2c24.1,0,43.6-2.3,43.6-5.2c0-2.1-10.4-3.9-25.4-4.7
			c-0.5-1.2-1.5-2.3-2.6-3.3c-3.4-2.8-5.8-6.5-7-10.7l-0.1-0.3l2.7-10c4.8,1.1,8.8,1.5,8.8,0c0-3.6-1.4-5-1.4-5l8.2-84.8
			c0.8,1.2,2,1.8,3.7,1.7c3.8-0.3,4.4-4.2,3.9-8.5l15.4-12.3l0.1-0.1c4,2.3,9,0.1,13.7-3.8c0.4-0.3,0.8-0.7,1.2-1.1c0,0,0,0,0,0
			c1.1,1.2,2.2-1,4-4.5s3.7-13.5,2.6-18.5C6557.2,872.3,6553.7,873.8,6550,874.6z M6483,1019.7c-1.6,2.8-2.8,5.9-2.2,8.4
			c0.1,0.6,0.3,1.1,0.4,1.7c-1.7,0-3.3,0.1-5,0.1c-0.6-1-1.4-1.9-2.3-2.7c-3.4-2.8-5.8-6.5-7-10.7l-0.1-0.3l3.7-13.6
			c1.5,0.2,2.4,0.3,2.4,0.3s2.9-5,1.4-5.8l4.3-23.7c0,0,7.2-10.1,6.5-16.5c0,0,2.2-10.8,0-15.8l0.7-31.7l2.9,38.1l-4.3,47.5
			c0,0-5.8,4.3-2.2,5.8c1,0.4,3.6,1.3,6.8,2.3C6488,1008.9,6486,1014.6,6483,1019.7z"/>
	</g>
</g>
</svg>
