<?xml version="1.0" encoding="utf-8"?>
<!-- Generator: Adobe Illustrator 24.1.0, SVG Export Plug-In . SVG Version: 6.00 Build 0)  -->
<svg version="1.1" id="Layer_1" xmlns="http://www.w3.org/2000/svg" xmlns:xlink="http://www.w3.org/1999/xlink" x="0px" y="0px"
	 viewBox="0 0 1215.96 391.72" style="enable-background:new 0 0 1215.96 391.72;" xml:space="preserve">
<style type="text/css">
	.st0{fill:#FA4616;}
	.st1{fill:#FFFFFF;}
	.st2{fill:none;stroke:#000000;stroke-width:12.0302;stroke-miterlimit:10;}
	.st3{fill:#FFFFFF;stroke:#000000;stroke-width:12.0302;stroke-miterlimit:10;}
	.st4{fill:none;stroke:#000000;stroke-width:12.0302;stroke-linejoin:round;stroke-miterlimit:10;}
	.st5{fill:none;stroke:#FA4616;stroke-width:11.2077;stroke-miterlimit:10;}
	.st6{fill:none;stroke:#000000;stroke-width:11.2077;stroke-miterlimit:10;}
	.st7{fill:none;stroke:#000000;stroke-width:11.2077;stroke-linecap:round;stroke-miterlimit:10;}
	.st8{fill:none;stroke:#FFFFFF;stroke-width:11.2077;stroke-linecap:square;stroke-miterlimit:10;}
	.st9{fill:none;stroke:#000000;stroke-width:11.2077;stroke-linecap:square;stroke-miterlimit:10;}
	.st10{fill:none;stroke:#000000;stroke-width:11.5294;stroke-miterlimit:10;}
	.st11{fill:none;stroke:#000000;stroke-width:4.3861;stroke-miterlimit:10;}
	.st12{fill:none;stroke:#000000;stroke-width:10.4027;stroke-miterlimit:10;}
	.st13{fill:none;stroke:#FA4616;stroke-width:10.403;stroke-linecap:round;stroke-miterlimit:10;}
	.st14{fill:none;stroke:#000000;stroke-width:8.7169;stroke-miterlimit:10;}
	.st15{fill:none;stroke:#FFFFFF;stroke-width:10.3327;stroke-miterlimit:10;}
	.st16{fill:none;stroke:#FFFFFF;stroke-width:10.3327;stroke-linecap:round;stroke-miterlimit:10;}
	.st17{fill:none;stroke:#000000;stroke-width:10.3327;stroke-miterlimit:10;}
	.st18{fill:none;stroke:#FFFFFF;stroke-width:10.3327;stroke-linecap:square;stroke-miterlimit:10;}
	.st19{fill:none;stroke:#000000;stroke-width:10.3327;stroke-linecap:round;stroke-miterlimit:10;}
	.st20{fill:none;stroke:#000000;stroke-width:10.3327;stroke-linecap:square;stroke-miterlimit:10;}
	.st21{fill:none;stroke:#000000;stroke-width:11.0486;stroke-miterlimit:10;}
	.st22{fill:none;stroke:#FA4616;stroke-width:9.5734;stroke-miterlimit:10;}
	.st23{fill:none;stroke:#000000;stroke-width:10.4176;stroke-miterlimit:10;}
	.st24{fill:none;stroke:#000000;stroke-width:10.4176;stroke-linecap:round;stroke-miterlimit:10;}
	.st25{fill:none;stroke:#FFFFFF;stroke-width:13.7837;stroke-linecap:square;stroke-miterlimit:10;}
	.st26{fill:none;stroke:#000000;stroke-width:13.7837;stroke-linecap:square;stroke-miterlimit:10;}
	.st27{fill:none;stroke:#000000;stroke-width:11.0569;stroke-miterlimit:10;}
	.st28{fill:none;stroke:#000000;stroke-width:4.2063;stroke-miterlimit:10;}
	.st29{fill:none;stroke:#000000;stroke-width:9.9764;stroke-miterlimit:10;}
	.st30{fill:none;stroke:#FA4616;stroke-width:9.9767;stroke-linecap:round;stroke-miterlimit:10;}
	.st31{fill:none;stroke:#000000;stroke-width:8.3597;stroke-miterlimit:10;}
	.st32{fill:none;stroke:#FFFFFF;stroke-width:13.38;stroke-miterlimit:10;}
	.st33{fill:none;stroke:#FFFFFF;stroke-width:13.38;stroke-linecap:round;stroke-miterlimit:10;}
	.st34{fill:none;stroke:#000000;stroke-width:13.38;stroke-miterlimit:10;}
	.st35{fill:none;stroke:#FFFFFF;stroke-width:13.38;stroke-linecap:square;stroke-miterlimit:10;}
	.st36{fill:none;stroke:#000000;stroke-width:13.38;stroke-linecap:round;stroke-miterlimit:10;}
	.st37{fill:none;stroke:#000000;stroke-width:13.38;stroke-linecap:square;stroke-miterlimit:10;}
	.st38{clip-path:url(#SVGID_2_);fill:#FFFFFF;}
	.st39{clip-path:url(#SVGID_2_);fill:#FFFFFF;stroke:#000000;stroke-width:9.598;stroke-miterlimit:10;}
	.st40{clip-path:url(#SVGID_2_);fill:none;stroke:#000000;stroke-width:9.598;stroke-miterlimit:10;}
	.st41{fill:none;stroke:#000000;stroke-width:9.1609;stroke-miterlimit:10;}
	.st42{fill:none;stroke:#FA4616;stroke-width:9.1609;stroke-miterlimit:10;}
	.st43{fill:none;stroke:#000000;stroke-width:8.5401;stroke-miterlimit:10;}
	.st44{fill:none;stroke:#FA4616;stroke-width:8.5404;stroke-linecap:round;stroke-miterlimit:10;}
	.st45{fill:none;stroke:#000000;stroke-width:9.398;stroke-miterlimit:10;}
	.st46{clip-path:url(#SVGID_4_);fill:#FFFFFF;}
	.st47{clip-path:url(#SVGID_4_);fill:#FFFFFF;stroke:#000000;stroke-width:9.598;stroke-miterlimit:10;}
	.st48{clip-path:url(#SVGID_4_);fill:none;stroke:#000000;stroke-width:9.598;stroke-miterlimit:10;}
</style>
<g>
	<g>
		<polyline class="st0" points="586.64,337.85 196.41,338.5 172.9,358.44 160.99,371.84 1196.41,371.84 1196.41,200.29 
			1191.57,174.31 1169.38,213.54 1162.45,336.77 632.54,337.77 629.89,369.38 615.33,363.22 586.64,337.85 		"/>
	</g>
	<g>
		<polygon points="1205.53,381.02 120.25,381.02 120.25,59.94 553.36,59.94 553.36,74.08 134.38,74.08 134.38,366.89 1191.4,366.89 
			1191.4,174.31 1205.53,174.31 		"/>
	</g>
	<g>
		<circle class="st1" cx="168.65" cy="107.43" r="93.34"/>
		<path d="M168.65,207.84c-55.36,0-100.4-45.04-100.4-100.4c0-55.36,45.04-100.4,100.4-100.4s100.4,45.04,100.4,100.4
			C269.05,162.8,224.01,207.84,168.65,207.84z M168.65,21.16c-47.57,0-86.27,38.7-86.27,86.27s38.7,86.27,86.27,86.27
			s86.27-38.7,86.27-86.27S216.21,21.16,168.65,21.16z"/>
	</g>
	<g>
		<polygon class="st0" points="232.98,285.51 275.95,235.31 326.83,207.7 379.35,210.28 445.33,234.79 510.3,276.15 518.72,289.02 
					"/>
	</g>
	<g>
		<rect x="228.94" y="283.76" width="300.83" height="14.13"/>
	</g>
	<g>
		<rect x="191.02" y="329.7" width="393.65" height="14.13"/>
	</g>
	<g>
		<path d="M464.24,185.77h15.57l5.49-16h27.04l5.76,16h15.46l-31.72-79.98h-6.14L464.24,185.77z M508.24,159.05h-18.96l9.48-29.14
			L508.24,159.05z"/>
		<path d="M589.68,142.09c2.76-3.84,4.15-8.1,4.15-12.76c0-15.51-10.02-23.27-30.05-23.27c-3.23,0-7.49,0.14-12.76,0.4
			c-5.28,0.27-8.31,0.4-9.1,0.4v78.9h14.54v-32.96c3.81,0.22,6.77,0.34,8.89,0.38l21.06,32.58h16.16l-23.32-35.55
			C583.43,148.64,586.91,145.93,589.68,142.09z M575.21,138.8c-2.71,1.65-6.99,2.48-12.85,2.48c-1.36,0-3.34-0.11-5.92-0.32v-21.92
			c1.65-0.22,3.23-0.32,4.74-0.32c6.25,0,10.83,0.77,13.73,2.32c2.91,1.54,4.36,4.25,4.36,8.13
			C579.28,133.94,577.92,137.15,575.21,138.8z"/>
		<polygon points="699.76,185.77 752.92,185.77 752.92,173.33 718.72,173.33 751.73,111.39 751.73,106.87 700.3,106.87 
			700.3,119.31 732.67,119.31 699.76,181.24 		"/>
		<polygon points="815.66,119.31 815.66,106.87 765.31,106.87 765.31,185.77 815.07,185.77 815.07,173.33 779.31,173.33 
			779.31,149.68 805.38,149.68 805.38,137.78 779.31,137.78 779.31,119.31 		"/>
		<path d="M844.42,106.33c-1.58,0-7.04,0.2-16.37,0.59v78.85h14v-29.03c2.66,0.25,4.77,0.38,6.36,0.38
			c21.33,0,31.99-9.05,31.99-27.14c0-8.11-2.88-14.08-8.64-17.91C865.99,108.24,856.88,106.33,844.42,106.33z M861.66,141.47
			c-2.94,2.14-7.61,3.2-14,3.2c-1.37,0-3.23-0.13-5.6-0.38v-25.26c1.36-0.18,2.78-0.27,4.25-0.27c13.18,0,19.77,4.09,19.77,12.28
			C866.08,135.86,864.6,139.34,861.66,141.47z"/>
		<path d="M909.16,106.33c-1.58,0-7.04,0.2-16.37,0.59v78.85h14v-29.03c2.66,0.25,4.77,0.38,6.36,0.38
			c21.33,0,31.99-9.05,31.99-27.14c0-8.11-2.88-14.08-8.64-17.91C930.73,108.24,921.62,106.33,909.16,106.33z M926.4,141.47
			c-2.94,2.14-7.61,3.2-14,3.2c-1.37,0-3.23-0.13-5.6-0.38v-25.26c1.36-0.18,2.78-0.27,4.25-0.27c13.18,0,19.77,4.09,19.77,12.28
			C930.81,135.86,929.34,139.34,926.4,141.47z"/>
		<polygon points="1007.88,119.31 1007.88,106.87 957.53,106.87 957.53,185.77 1007.29,185.77 1007.29,173.33 971.53,173.33 
			971.53,149.68 997.6,149.68 997.6,137.78 971.53,137.78 971.53,119.31 		"/>
		<polygon points="1020.27,106.87 1020.27,185.77 1069.93,185.77 1069.93,173.33 1034.28,173.33 1034.28,106.87 		"/>
		<rect x="1081.51" y="106.87" width="14" height="78.9"/>
		<path d="M1118.67,106.87h-6.73v78.96h13.46v-48.9l38.29,49.93h5.71v-14.96h0.11V7.03H7.07v336.8h167.36
			c-8.16,8.17-17.09,16.42-27.02,24.69l9.05,10.86c14.39-11.99,26.73-23.9,37.64-35.55h388.2l4.19,3.17
			c0.26,0.22,0.52,0.44,0.78,0.66c3.17,2.7,6.3,5.37,9.37,7.98l0.14,0.12l0.02,0.02c5.07,4.31,9.97,8.44,14.65,12.32l0.47,0.4
			l0.51,0.41c3.13,2.6,6.16,5.07,9.06,7.39l2.56,2.09l0.45-0.02c2.34,1.08,5.04,1.1,7.45-0.06c0.19-0.09,0.37-0.21,0.55-0.32
			l4.45-0.21v-33.96h532.56V213.42H636.95v-94.11h26.19v-12.44h-65.33v12.44h25.01v94.11h-29.57v14.13h29.57v131.6l-16.79-14.08
			c-0.3-0.25-0.6-0.51-0.89-0.76l-9.62-8.19l-0.01-0.01c-31.95-27.23-71.53-60.88-113.04-87.65
			c-49.89-32.18-92.17-47.83-129.27-47.83c-64.73,0-91.2,34.9-124.72,79.08c-11.89,15.67-24.7,32.55-40.57,49.99H21.2V21.16h1134.18
			v132.6L1118.67,106.87z M1155.38,227.55V329.7H636.95V227.55H1155.38z M239.73,288.25c33.57-44.25,55.75-73.49,113.46-73.49
			c69.68,0,151.88,63.63,212.89,114.94H206.79C219.23,315.27,229.8,301.35,239.73,288.25z"/>
	</g>
</g>
</svg>
