<?xml version="1.0" encoding="utf-8"?>
<!-- Generator: Adobe Illustrator 24.1.0, SVG Export Plug-In . SVG Version: 6.00 Build 0)  -->
<svg version="1.1" id="Layer_1" xmlns="http://www.w3.org/2000/svg" xmlns:xlink="http://www.w3.org/1999/xlink" x="0px" y="0px"
	 viewBox="0 0 88 88" style="enable-background:new 0 0 88 88;" xml:space="preserve">
<style type="text/css">
	.st0{fill:#FA4616;}
	.st1{fill:#FFFFFF;}
	.st2{fill:#FFFFFF;stroke:#FA4616;stroke-width:3;stroke-miterlimit:10;}
</style>
<g id="Instagram_2_">
	<rect id="back-12_2_" x="1.5" y="1.5" class="st2" width="85" height="85"/>
	<path class="st0" d="M44,24.5c6.3,0,7.1,0,9.6,0.1c1.5,0,3,0.3,4.4,0.8c2.1,0.8,3.7,2.4,4.5,4.5c0.5,1.4,0.8,2.9,0.8,4.4
		c0.1,2.5,0.1,3.3,0.1,9.6s0,7.1-0.1,9.6c0,1.5-0.3,3-0.8,4.4c-0.8,2.1-2.4,3.7-4.5,4.5c-1.4,0.5-2.9,0.8-4.4,0.8
		c-2.5,0.1-3.3,0.1-9.6,0.1s-7.1,0-9.6-0.1c-1.5,0-3-0.3-4.4-0.8c-2.1-0.8-3.7-2.4-4.5-4.5c-0.5-1.4-0.8-2.9-0.8-4.4
		c-0.1-2.5-0.1-3.3-0.1-9.6s0-7.1,0.1-9.6c0-1.5,0.3-3,0.8-4.4c0.8-2.1,2.4-3.7,4.5-4.5c1.4-0.5,2.9-0.8,4.4-0.8
		C36.9,24.5,37.7,24.5,44,24.5 M44,20.2c-6.5,0-7.3,0-9.8,0.1c-2,0-3.9,0.4-5.8,1.1c-3.2,1.2-5.8,3.8-7,7c-0.7,1.9-1.1,3.8-1.1,5.8
		c-0.1,2.5-0.1,3.3-0.1,9.8s0,7.3,0.1,9.8c0,2,0.4,3.9,1.1,5.8c1.2,3.2,3.8,5.8,7,7c1.9,0.7,3.8,1.1,5.8,1.1
		c2.5,0.1,3.3,0.1,9.8,0.1s7.3,0,9.8-0.1c2,0,3.9-0.4,5.8-1.1c3.2-1.2,5.8-3.8,7-7c0.7-1.9,1.1-3.8,1.1-5.8c0.1-2.5,0.1-3.3,0.1-9.8
		s0-7.3-0.1-9.8c0-2-0.4-3.9-1.1-5.8c-1.2-3.2-3.8-5.8-7-7c-1.9-0.7-3.8-1.1-5.8-1.1C51.3,20.2,50.5,20.2,44,20.2z"/>
	<path class="st0" d="M44,31.8c-6.7,0-12.2,5.5-12.2,12.2S37.3,56.2,44,56.2S56.2,50.7,56.2,44v0C56.2,37.3,50.7,31.8,44,31.8z
		 M44,51.9c-4.4,0-7.9-3.6-7.9-7.9s3.6-7.9,7.9-7.9c4.4,0,7.9,3.6,7.9,7.9l0,0C51.9,48.4,48.4,51.9,44,51.9L44,51.9z"/>
	<circle class="st0" cx="56.7" cy="31.3" r="2.9"/>
</g>
</svg>
