<?xml version="1.0" encoding="utf-8"?>
<!-- Generator: Adobe Illustrator 24.1.0, SVG Export Plug-In . SVG Version: 6.00 Build 0)  -->
<svg version="1.1" id="Layer_1" xmlns="http://www.w3.org/2000/svg" xmlns:xlink="http://www.w3.org/1999/xlink" x="0px" y="0px"
	 viewBox="0 0 88 88" style="enable-background:new 0 0 88 88;" xml:space="preserve">
<style type="text/css">
	.st0{fill:#FA4616;}
	.st1{fill:#FFFFFF;}
	.st2{fill:#FFFFFF;stroke:#FA4616;stroke-width:3;stroke-miterlimit:10;}
</style>
<g id="Linkedin_2_">
	<rect id="back-11_2_" x="1.5" y="1.5" class="st2" width="85" height="85"/>
	<g id="Linkedin-2_2_">
		<path class="st0" d="M20.8,35.9h9.9v31.7h-9.9V35.9z M25.8,20.1c3.2,0,5.7,2.6,5.7,5.7s-2.6,5.7-5.7,5.7S20,29,20,25.8v0
			C20,22.7,22.6,20.1,25.8,20.1"/>
		<path class="st0" d="M36.9,35.9h9.5v4.3h0.2c1.9-3.3,5.5-5.3,9.3-5.1c10,0,11.8,6.6,11.8,15.1v17.4h-9.9V52.2
			c0-3.7-0.1-8.4-5.1-8.4s-5.9,4-5.9,8.2v15.7h-9.8L36.9,35.9z"/>
	</g>
</g>
</svg>
