<?xml version="1.0" encoding="utf-8"?>
<!-- Generator: Adobe Illustrator 24.1.0, SVG Export Plug-In . SVG Version: 6.00 Build 0)  -->
<svg version="1.1" id="Layer_1" xmlns="http://www.w3.org/2000/svg" xmlns:xlink="http://www.w3.org/1999/xlink" x="0px" y="0px"
	 viewBox="0 0 88 88" style="enable-background:new 0 0 88 88;" xml:space="preserve">
<style type="text/css">
	.st0{fill:#FA4616;}
	.st1{fill:#FFFFFF;}
	.st2{fill:#FFFFFF;stroke:#FA4616;stroke-width:3;stroke-miterlimit:10;}
</style>
<g id="Facebook_2_">
	<rect id="back-15_2_" x="1.5" y="1.5" class="st2" width="85" height="85"/>
	<path id="Facebook-2_2_" class="st0" d="M65.2,20.2H22.8c-1.5,0-2.6,1.2-2.6,2.6l0,0v42.3c0,1.5,1.2,2.6,2.6,2.6l0,0h22.8V49.4
		h-6.2v-7.2h6.2v-5.3c0-6.2,3.8-9.5,9.2-9.5c1.9,0,3.7,0.1,5.5,0.3v6.4h-3.8c-3,0-3.6,1.4-3.6,3.5v4.6h7.1l-0.9,7.2H53v18.4h12.1
		c1.5,0,2.6-1.2,2.6-2.6l0,0V22.8C67.8,21.4,66.6,20.2,65.2,20.2L65.2,20.2z"/>
</g>
</svg>
