<svg id="Groupe_591" data-name="Groupe 591" xmlns="http://www.w3.org/2000/svg" width="125.663" height="96.11" viewBox="0 0 125.663 96.11">
  <defs>
    <style>
      .cls-1 {
        fill: #fff;
      }

      .cls-2 {
        fill: #fc3e00;
      }

      .cls-3 {
        fill: #ffcdbb;
      }
    </style>
  </defs>
  <g id="Groupe_545" data-name="Groupe 545" transform="translate(35.012 32.756)">
    <rect id="Rectangle_189" data-name="Rectangle 189" class="cls-1" width="88.274" height="59.992" transform="translate(1.189 1.189)"/>
    <path id="Tracé_1025" data-name="Tracé 1025" class="cls-2" d="M1144.849,3118.477H1054.2v-62.37h90.651Zm-88.274-2.377h85.9v-57.615h-85.9Z" transform="translate(-1054.198 -3056.107)"/>
  </g>
  <g id="Groupe_562" data-name="Groupe 562" transform="translate(9.15)">
    <g id="Groupe_546" data-name="Groupe 546">
      <rect id="Rectangle_190" data-name="Rectangle 190" class="cls-3" width="14.165" height="93.732" transform="translate(1.189 1.189)"/>
      <path id="Tracé_1026" data-name="Tracé 1026" class="cls-2" d="M1021.861,3090.306h-16.543V2994.2h16.543Zm-14.165-2.378h11.788v-91.355H1007.7Z" transform="translate(-1005.318 -2994.196)"/>
    </g>
    <g id="Groupe_547" data-name="Groupe 547" transform="translate(9.825 5.655)">
      <line id="Ligne_137" data-name="Ligne 137" class="cls-1" x1="5.529" transform="translate(0 1.188)"/>
      <rect id="Rectangle_191" data-name="Rectangle 191" class="cls-2" width="5.529" height="2.377" transform="translate(0)"/>
    </g>
    <g id="Groupe_548" data-name="Groupe 548" transform="translate(9.825 11.542)">
      <line id="Ligne_138" data-name="Ligne 138" class="cls-1" x1="5.529" transform="translate(0 1.188)"/>
      <rect id="Rectangle_192" data-name="Rectangle 192" class="cls-2" width="5.529" height="2.377" transform="translate(0)"/>
    </g>
    <g id="Groupe_549" data-name="Groupe 549" transform="translate(9.825 17.43)">
      <line id="Ligne_139" data-name="Ligne 139" class="cls-1" x1="5.529" transform="translate(0 1.188)"/>
      <rect id="Rectangle_193" data-name="Rectangle 193" class="cls-2" width="5.529" height="2.377" transform="translate(0)"/>
    </g>
    <g id="Groupe_550" data-name="Groupe 550" transform="translate(9.825 23.317)">
      <line id="Ligne_140" data-name="Ligne 140" class="cls-1" x1="5.529" transform="translate(0 1.188)"/>
      <rect id="Rectangle_194" data-name="Rectangle 194" class="cls-2" width="5.529" height="2.377" transform="translate(0)"/>
    </g>
    <g id="Groupe_551" data-name="Groupe 551" transform="translate(9.825 29.204)">
      <line id="Ligne_141" data-name="Ligne 141" class="cls-1" x1="5.529" transform="translate(0 1.188)"/>
      <rect id="Rectangle_195" data-name="Rectangle 195" class="cls-2" width="5.529" height="2.377" transform="translate(0)"/>
    </g>
    <g id="Groupe_552" data-name="Groupe 552" transform="translate(9.825 35.092)">
      <line id="Ligne_142" data-name="Ligne 142" class="cls-1" x1="5.529" transform="translate(0 1.188)"/>
      <rect id="Rectangle_196" data-name="Rectangle 196" class="cls-2" width="5.529" height="2.377" transform="translate(0)"/>
    </g>
    <g id="Groupe_553" data-name="Groupe 553" transform="translate(9.825 40.979)">
      <line id="Ligne_143" data-name="Ligne 143" class="cls-1" x1="5.529" transform="translate(0 1.188)"/>
      <rect id="Rectangle_197" data-name="Rectangle 197" class="cls-2" width="5.529" height="2.377" transform="translate(0)"/>
    </g>
    <g id="Groupe_554" data-name="Groupe 554" transform="translate(9.825 46.866)">
      <line id="Ligne_144" data-name="Ligne 144" class="cls-1" x1="5.529" transform="translate(0 1.188)"/>
      <rect id="Rectangle_198" data-name="Rectangle 198" class="cls-2" width="5.529" height="2.377" transform="translate(0)"/>
    </g>
    <g id="Groupe_555" data-name="Groupe 555" transform="translate(9.825 52.754)">
      <line id="Ligne_145" data-name="Ligne 145" class="cls-1" x1="5.529" transform="translate(0 1.188)"/>
      <rect id="Rectangle_199" data-name="Rectangle 199" class="cls-2" width="5.529" height="2.377" transform="translate(0)"/>
    </g>
    <g id="Groupe_556" data-name="Groupe 556" transform="translate(9.825 58.642)">
      <line id="Ligne_146" data-name="Ligne 146" class="cls-1" x1="5.529" transform="translate(0 1.188)"/>
      <rect id="Rectangle_200" data-name="Rectangle 200" class="cls-2" width="5.529" height="2.377" transform="translate(0)"/>
    </g>
    <g id="Groupe_557" data-name="Groupe 557" transform="translate(9.825 64.529)">
      <line id="Ligne_147" data-name="Ligne 147" class="cls-1" x1="5.529" transform="translate(0 1.188)"/>
      <rect id="Rectangle_201" data-name="Rectangle 201" class="cls-2" width="5.529" height="2.377" transform="translate(0)"/>
    </g>
    <g id="Groupe_558" data-name="Groupe 558" transform="translate(9.825 70.416)">
      <line id="Ligne_148" data-name="Ligne 148" class="cls-1" x1="5.529" transform="translate(0 1.188)"/>
      <rect id="Rectangle_202" data-name="Rectangle 202" class="cls-2" width="5.529" height="2.377" transform="translate(0)"/>
    </g>
    <g id="Groupe_559" data-name="Groupe 559" transform="translate(9.825 76.304)">
      <line id="Ligne_149" data-name="Ligne 149" class="cls-1" x1="5.529" transform="translate(0 1.188)"/>
      <rect id="Rectangle_203" data-name="Rectangle 203" class="cls-2" width="5.529" height="2.377" transform="translate(0)"/>
    </g>
    <g id="Groupe_560" data-name="Groupe 560" transform="translate(9.825 82.191)">
      <line id="Ligne_150" data-name="Ligne 150" class="cls-1" x1="5.529" transform="translate(0 1.188)"/>
      <rect id="Rectangle_204" data-name="Rectangle 204" class="cls-2" width="5.529" height="2.377" transform="translate(0)"/>
    </g>
    <g id="Groupe_561" data-name="Groupe 561" transform="translate(9.825 88.078)">
      <line id="Ligne_151" data-name="Ligne 151" class="cls-1" x1="5.529" transform="translate(0 1.189)"/>
      <rect id="Rectangle_205" data-name="Rectangle 205" class="cls-2" width="5.529" height="2.377" transform="translate(0)"/>
    </g>
  </g>
  <g id="Groupe_584" data-name="Groupe 584" transform="translate(0 6.999)">
    <g id="Groupe_563" data-name="Groupe 563">
      <rect id="Rectangle_206" data-name="Rectangle 206" class="cls-1" width="14.165" height="123.101" transform="translate(124.289 1.188) rotate(90)"/>
      <path id="Tracé_1027" data-name="Tracé 1027" class="cls-2" d="M1113.5,3023.966H988.023v-16.542H1113.5Zm-123.1-2.377h120.724V3009.8H990.4Z" transform="translate(-988.023 -3007.424)"/>
    </g>
    <g id="Groupe_564" data-name="Groupe 564" transform="translate(88.077 9.824)">
      <line id="Ligne_152" data-name="Ligne 152" class="cls-1" y1="5.529" transform="translate(1.189)"/>
      <rect id="Rectangle_207" data-name="Rectangle 207" class="cls-2" width="2.377" height="5.529" transform="translate(0 0)"/>
    </g>
    <g id="Groupe_565" data-name="Groupe 565" transform="translate(82.19 9.824)">
      <line id="Ligne_153" data-name="Ligne 153" class="cls-1" y1="5.529" transform="translate(1.189)"/>
      <rect id="Rectangle_208" data-name="Rectangle 208" class="cls-2" width="2.377" height="5.529" transform="translate(0 0)"/>
    </g>
    <g id="Groupe_566" data-name="Groupe 566" transform="translate(93.965 9.824)">
      <line id="Ligne_154" data-name="Ligne 154" class="cls-1" y1="5.529" transform="translate(1.189)"/>
      <rect id="Rectangle_209" data-name="Rectangle 209" class="cls-2" width="2.377" height="5.529" transform="translate(0 0)"/>
    </g>
    <g id="Groupe_567" data-name="Groupe 567" transform="translate(99.852 9.824)">
      <line id="Ligne_155" data-name="Ligne 155" class="cls-1" y1="5.529" transform="translate(1.189)"/>
      <rect id="Rectangle_210" data-name="Rectangle 210" class="cls-2" width="2.377" height="5.529" transform="translate(0 0)"/>
    </g>
    <g id="Groupe_568" data-name="Groupe 568" transform="translate(105.739 9.824)">
      <line id="Ligne_156" data-name="Ligne 156" class="cls-1" y1="5.529" transform="translate(1.189)"/>
      <rect id="Rectangle_211" data-name="Rectangle 211" class="cls-2" width="2.377" height="5.529" transform="translate(0 0)"/>
    </g>
    <g id="Groupe_569" data-name="Groupe 569" transform="translate(111.627 9.824)">
      <line id="Ligne_157" data-name="Ligne 157" class="cls-1" y1="5.529" transform="translate(1.189)"/>
      <rect id="Rectangle_212" data-name="Rectangle 212" class="cls-2" width="2.377" height="5.529" transform="translate(0 0)"/>
    </g>
    <g id="Groupe_570" data-name="Groupe 570" transform="translate(117.514 9.824)">
      <line id="Ligne_158" data-name="Ligne 158" class="cls-1" y1="5.529" transform="translate(1.189)"/>
      <rect id="Rectangle_213" data-name="Rectangle 213" class="cls-2" width="2.377" height="5.529" transform="translate(0 0)"/>
    </g>
    <g id="Groupe_571" data-name="Groupe 571" transform="translate(76.302 9.824)">
      <line id="Ligne_159" data-name="Ligne 159" class="cls-1" y1="5.529" transform="translate(1.189)"/>
      <rect id="Rectangle_214" data-name="Rectangle 214" class="cls-2" width="2.377" height="5.529" transform="translate(0 0)"/>
    </g>
    <g id="Groupe_572" data-name="Groupe 572" transform="translate(70.415 9.824)">
      <line id="Ligne_160" data-name="Ligne 160" class="cls-1" y1="5.529" transform="translate(1.189)"/>
      <rect id="Rectangle_215" data-name="Rectangle 215" class="cls-2" width="2.377" height="5.529" transform="translate(0 0)"/>
    </g>
    <g id="Groupe_573" data-name="Groupe 573" transform="translate(64.528 9.824)">
      <line id="Ligne_161" data-name="Ligne 161" class="cls-1" y1="5.529" transform="translate(1.189)"/>
      <rect id="Rectangle_216" data-name="Rectangle 216" class="cls-2" width="2.377" height="5.529" transform="translate(0 0)"/>
    </g>
    <g id="Groupe_574" data-name="Groupe 574" transform="translate(58.64 9.824)">
      <line id="Ligne_162" data-name="Ligne 162" class="cls-1" y1="5.529" transform="translate(1.189)"/>
      <rect id="Rectangle_217" data-name="Rectangle 217" class="cls-2" width="2.377" height="5.529" transform="translate(0 0)"/>
    </g>
    <g id="Groupe_575" data-name="Groupe 575" transform="translate(52.753 9.824)">
      <line id="Ligne_163" data-name="Ligne 163" class="cls-1" y1="5.529" transform="translate(1.189)"/>
      <rect id="Rectangle_218" data-name="Rectangle 218" class="cls-2" width="2.377" height="5.529" transform="translate(0 0)"/>
    </g>
    <g id="Groupe_576" data-name="Groupe 576" transform="translate(46.866 9.824)">
      <line id="Ligne_164" data-name="Ligne 164" class="cls-1" y1="5.529" transform="translate(1.189)"/>
      <rect id="Rectangle_219" data-name="Rectangle 219" class="cls-2" width="2.377" height="5.529" transform="translate(0 0)"/>
    </g>
    <g id="Groupe_577" data-name="Groupe 577" transform="translate(40.978 9.824)">
      <line id="Ligne_165" data-name="Ligne 165" class="cls-1" y1="5.529" transform="translate(1.189)"/>
      <rect id="Rectangle_220" data-name="Rectangle 220" class="cls-2" width="2.377" height="5.529" transform="translate(0 0)"/>
    </g>
    <g id="Groupe_578" data-name="Groupe 578" transform="translate(35.091 9.824)">
      <line id="Ligne_166" data-name="Ligne 166" class="cls-1" y1="5.529" transform="translate(1.189)"/>
      <rect id="Rectangle_221" data-name="Rectangle 221" class="cls-2" width="2.377" height="5.529" transform="translate(0 0)"/>
    </g>
    <g id="Groupe_579" data-name="Groupe 579" transform="translate(29.203 9.824)">
      <line id="Ligne_167" data-name="Ligne 167" class="cls-1" y1="5.529" transform="translate(1.189)"/>
      <rect id="Rectangle_222" data-name="Rectangle 222" class="cls-2" width="2.377" height="5.529" transform="translate(0 0)"/>
    </g>
    <g id="Groupe_580" data-name="Groupe 580" transform="translate(23.316 9.824)">
      <line id="Ligne_168" data-name="Ligne 168" class="cls-1" y1="5.529" transform="translate(1.189)"/>
      <rect id="Rectangle_223" data-name="Rectangle 223" class="cls-2" width="2.377" height="5.529" transform="translate(0 0)"/>
    </g>
    <g id="Groupe_581" data-name="Groupe 581" transform="translate(17.428 9.824)">
      <line id="Ligne_169" data-name="Ligne 169" class="cls-1" y1="5.529" transform="translate(1.189)"/>
      <rect id="Rectangle_224" data-name="Rectangle 224" class="cls-2" width="2.377" height="5.529" transform="translate(0 0)"/>
    </g>
    <g id="Groupe_582" data-name="Groupe 582" transform="translate(11.541 9.824)">
      <line id="Ligne_170" data-name="Ligne 170" class="cls-1" y1="5.529" transform="translate(1.189)"/>
      <rect id="Rectangle_225" data-name="Rectangle 225" class="cls-2" width="2.377" height="5.529" transform="translate(0 0)"/>
    </g>
    <g id="Groupe_583" data-name="Groupe 583" transform="translate(5.654 9.824)">
      <line id="Ligne_171" data-name="Ligne 171" class="cls-1" y1="5.529" transform="translate(1.188)"/>
      <rect id="Rectangle_226" data-name="Rectangle 226" class="cls-2" width="2.377" height="5.529" transform="translate(0 0)"/>
    </g>
  </g>
  <g id="Groupe_585" data-name="Groupe 585" transform="translate(31.157 28.901)">
    <rect id="Rectangle_227" data-name="Rectangle 227" class="cls-3" width="88.274" height="59.992" transform="translate(1.188 1.189)"/>
    <path id="Tracé_1028" data-name="Tracé 1028" class="cls-2" d="M1137.563,3111.191h-90.651v-62.37h90.651Zm-88.274-2.377h85.9V3051.2h-85.9Z" transform="translate(-1046.912 -3048.821)"/>
  </g>
  <g id="Groupe_586" data-name="Groupe 586" transform="translate(68.196 41.938)">
    <path id="Tracé_1029" data-name="Tracé 1029" class="cls-2" d="M1126.369,3098.573h-4.581q-.049-.168-.444-1.223a5.383,5.383,0,0,1-.4-1.847,9.966,9.966,0,0,1,.42-2.9,9.582,9.582,0,0,1,1.235-2.6,40.954,40.954,0,0,1,3.226-3.874q2.41-2.662,2.41-4.388,0-3.358-4.389-3.358a6.79,6.79,0,0,0-4.461,2.134l-2.47-4.629a12.811,12.811,0,0,1,8.13-2.422,9.819,9.819,0,0,1,6.487,2.159,7.073,7.073,0,0,1,2.6,5.731,8.355,8.355,0,0,1-.947,4.137,18.346,18.346,0,0,1-3.334,3.969,14.666,14.666,0,0,0-3.106,3.789,7.6,7.6,0,0,0-.719,3.31A14.821,14.821,0,0,0,1126.369,3098.573Zm-2.039,3.262a3.75,3.75,0,0,1,2.77,1.151,3.965,3.965,0,0,1,0,5.563,3.75,3.75,0,0,1-2.77,1.151,3.933,3.933,0,1,1,0-7.866Z" transform="translate(-1116.92 -3073.463)"/>
  </g>
</svg>
