<svg xmlns="http://www.w3.org/2000/svg" width="143.035" height="93.287" viewBox="0 0 143.035 93.287">
  <defs>
    <style>
      .cls-1 {
        fill: #fff;
      }

      .cls-2 {
        fill: #fc3e00;
      }

      .cls-3 {
        fill: #ffcdbb;
      }

      .cls-4 {
        fill: #ff4e00;
      }
    </style>
  </defs>
  <g id="Groupe_362" data-name="Groupe 362" transform="translate(0 0)">
    <g id="Groupe_355" data-name="Groupe 355">
      <g id="Groupe_347" data-name="Groupe 347">
        <rect id="Rectangle_126" data-name="Rectangle 126" class="cls-1" width="90.534" height="126.751" transform="translate(128.126 1.376) rotate(90)"/>
        <path id="Tracé_877" data-name="Tracé 877" class="cls-2" d="M2027.056,3385.5h-129.5v-93.286h129.5Zm-126.75-2.751h124V3294.96h-124Z" transform="translate(-1897.554 -3292.209)"/>
      </g>
      <g id="Groupe_348" data-name="Groupe 348" transform="translate(0 0.001)">
        <path id="Tracé_878" data-name="Tracé 878" class="cls-3" d="M1906.657,3301.313l-6.857-6.857v90.534l6.857-6.856h113.037l6.857,6.856v-90.534l-6.857,6.857Z" transform="translate(-1898.425 -3293.081)"/>
        <path id="Tracé_879" data-name="Tracé 879" class="cls-2" d="M2025.681,3385.5a1.377,1.377,0,0,1-.974-.4l-6.453-6.454h-111.9l-6.454,6.454a1.376,1.376,0,0,1-2.348-.973v-90.534a1.376,1.376,0,0,1,2.348-.973l6.454,6.454h111.9l6.453-6.454a1.376,1.376,0,0,1,2.349.973v90.534a1.378,1.378,0,0,1-1.375,1.376Zm-119.9-9.609h113.038a1.377,1.377,0,0,1,.973.4l4.508,4.508v-83.892l-4.508,4.509a1.377,1.377,0,0,1-.973.4H1905.786a1.375,1.375,0,0,1-.972-.4l-4.508-4.509V3380.8l4.508-4.508A1.375,1.375,0,0,1,1905.786,3375.887Z" transform="translate(-1897.554 -3292.21)"/>
      </g>
      <g id="Groupe_349" data-name="Groupe 349" transform="translate(6.856 6.857)">
        <rect id="Rectangle_127" data-name="Rectangle 127" class="cls-1" width="113.038" height="76.821" transform="translate(1.376 1.375)"/>
        <path id="Tracé_880" data-name="Tracé 880" class="cls-2" d="M2024.54,3382.979H1908.75v-79.572h115.79Zm-113.037-2.752h110.286v-74.069H1911.5Z" transform="translate(-1908.75 -3303.407)"/>
      </g>
      <g id="Groupe_350" data-name="Groupe 350" transform="translate(17.534 43.661)">
        <rect id="Rectangle_128" data-name="Rectangle 128" class="cls-1" width="45.841" height="32.224" transform="translate(1.376 1.376)"/>
        <path id="Tracé_881" data-name="Tracé 881" class="cls-2" d="M1974.78,3398.486h-48.592V3363.51h48.592Zm-45.84-2.751h43.089v-29.473H1928.94Z" transform="translate(-1926.188 -3363.51)"/>
      </g>
      <g id="Groupe_351" data-name="Groupe 351" transform="translate(74.467 25.696)">
        <rect id="Rectangle_129" data-name="Rectangle 129" class="cls-1" width="35.545" height="51.842" transform="translate(1.376 1.376)"/>
        <path id="Tracé_882" data-name="Tracé 882" class="cls-2" d="M2057.459,3388.765h-38.3v-54.594h38.3Zm-35.546-2.751h32.794v-49.091h-32.794Z" transform="translate(-2019.162 -3334.171)"/>
      </g>
      <g id="Groupe_352" data-name="Groupe 352" transform="translate(44.437 14.732)">
        <path id="Tracé_883" data-name="Tracé 883" class="cls-4" d="M1995.5,3367.016a25.375,25.375,0,1,1,25.375-25.375A25.4,25.4,0,0,1,1995.5,3367.016Zm0-47.61a22.235,22.235,0,1,0,22.235,22.235A22.26,22.26,0,0,0,1995.5,3319.406Z" transform="translate(-1970.121 -3316.267)"/>
      </g>
      <g id="Groupe_353" data-name="Groupe 353" transform="translate(19.006 18.475)">
        <path id="Tracé_884" data-name="Tracé 884" class="cls-4" d="M1937.19,3339.573a8.6,8.6,0,1,1,8.6-8.6A8.607,8.607,0,0,1,1937.19,3339.573Zm0-14.054a5.457,5.457,0,1,0,5.457,5.457A5.464,5.464,0,0,0,1937.19,3325.518Z" transform="translate(-1928.592 -3322.379)"/>
      </g>
      <g id="Groupe_354" data-name="Groupe 354" transform="translate(91.208 57.95)">
        <path id="Tracé_885" data-name="Tracé 885" class="cls-4" d="M2053.93,3401.7a7.429,7.429,0,1,1,7.43-7.429A7.438,7.438,0,0,1,2053.93,3401.7Zm0-11.719a4.29,4.29,0,1,0,4.29,4.29A4.3,4.3,0,0,0,2053.93,3389.983Z" transform="translate(-2046.5 -3386.844)"/>
      </g>
    </g>
    <g id="Groupe_361" data-name="Groupe 361" transform="translate(78.601 21.392)">
      <g id="Groupe_356" data-name="Groupe 356" transform="translate(0 0)">
        <path id="Tracé_886" data-name="Tracé 886" class="cls-1" d="M2071.949,3355.405c-2.5,2.5-4.689,4.547-6.605,6.2a1.631,1.631,0,0,1-.538,1.6l-11.472,9.987a1.565,1.565,0,0,1-1.807.219,8.434,8.434,0,0,1-2.5,7.466,10.455,10.455,0,0,1-2.194,1.573,1.348,1.348,0,0,1-.125.543l-.1.208-.206.107a32.15,32.15,0,0,1-8.686,2.914c-2.415.428-5.592.639-7.019-.788l-.654-.653.981-.338c3.4-1.17,4.285-4.634,5.14-7.983.157-.614.319-1.25.493-1.849h0a.7.7,0,0,1,.645-.5c.031,0,.064-.006.095-.007a7.749,7.749,0,0,1,1.69-3.169,8.433,8.433,0,0,1,7.467-2.5,1.563,1.563,0,0,1,.219-1.808l9.986-11.473a1.633,1.633,0,0,1,1.6-.538c1.657-1.916,3.7-4.1,6.2-6.605,12.145-12.145,23.644-20.337,25.683-18.3S2084.095,3343.261,2071.949,3355.405Z" transform="translate(-2027.514 -3328.022)"/>
        <path id="Tracé_887" data-name="Tracé 887" class="cls-2" d="M2032.894,3387.042c-2.167,0-3.765-.5-4.77-1.51l-2.211-2.211,3.063-1.053c2.7-.929,3.454-3.889,4.254-7.022.163-.637.328-1.282.5-1.893a2.079,2.079,0,0,1,.989-1.237,8.013,8.013,0,0,1,1.789-3.028,10.164,10.164,0,0,1,6.974-3.03,3.067,3.067,0,0,1,.647-1.2l9.987-11.473a3.035,3.035,0,0,1,2.042-1.045c1.641-1.867,3.6-3.938,5.827-6.168a141.15,141.15,0,0,1,16.805-14.615c7.507-5.35,9.729-4.778,10.824-3.683s1.666,3.316-3.683,10.823a141.143,141.143,0,0,1-14.616,16.806h0c-2.232,2.232-4.3,4.188-6.169,5.827a3.033,3.033,0,0,1-1.043,2.042l-11.474,9.987a3.067,3.067,0,0,1-1.2.648,10.163,10.163,0,0,1-3.029,6.974,10.621,10.621,0,0,1-1.942,1.474,2.283,2.283,0,0,1-.117.281l-.3.611-.6.313a33.622,33.622,0,0,1-9.079,3.046A20.012,20.012,0,0,1,2032.894,3387.042Zm-1.523-2.878a13.094,13.094,0,0,0,4.5-.171,30.891,30.891,0,0,0,7.989-2.626l.021-.57.671-.419a9.131,9.131,0,0,0,1.9-1.348,7.091,7.091,0,0,0,2.118-6.228l-.589-3,2.635,1.543a.228.228,0,0,0,.209-.068l11.473-9.987a.265.265,0,0,0,.1-.241l-.2-.814.633-.549c1.944-1.681,4.142-3.746,6.532-6.136,12.929-12.93,18.141-21.6,18.218-23.657-2.059.078-10.728,5.288-23.658,18.219-2.387,2.386-4.452,4.585-6.136,6.532l-.549.634-.815-.2a.264.264,0,0,0-.241.1l-9.987,11.473a.227.227,0,0,0-.069.208l1.467,2.6-2.92-.558a7.1,7.1,0,0,0-6.229,2.119,6.447,6.447,0,0,0-1.353,2.616l-.3.938-.563.011c-.119.436-.233.882-.344,1.317C2035.117,3378.979,2034.246,3382.386,2031.371,3384.164Z" transform="translate(-2025.913 -3327.143)"/>
      </g>
      <g id="Groupe_357" data-name="Groupe 357" transform="translate(1.095 38.907)">
        <path id="Tracé_888" data-name="Tracé 888" class="cls-1" d="M2049.723,3405.5c3.18-3.179,3.532-7.983.787-10.729s-7.549-2.393-10.729.787-1.758,11.928-7.948,14.057C2034.578,3412.364,2046.544,3408.683,2049.723,3405.5Z" transform="translate(-2029.303 -3391.55)"/>
        <path id="Tracé_889" data-name="Tracé 889" class="cls-2" d="M2033.744,3411.068a6.3,6.3,0,0,1-4.485-1.348l-1.558-1.557,2.083-.716c3.055-1.052,3.856-4.187,4.7-7.507.618-2.42,1.2-4.706,2.719-6.223a10.15,10.15,0,0,1,6.4-3.015,7.911,7.911,0,0,1,6.274,2.228c3.277,3.278,2.925,8.963-.786,12.675h0C2046.614,3408.086,2039.026,3411.068,2033.744,3411.068Zm-.218-2.72h0c3.926,0,11.2-2.268,13.621-4.688,2.638-2.638,2.991-6.578.787-8.783a5.191,5.191,0,0,0-4.129-1.43,7.4,7.4,0,0,0-4.655,2.216c-.983.983-1.476,2.914-2,4.958C2036.489,3403.226,2035.7,3406.3,2033.526,3408.348Z" transform="translate(-2027.701 -3390.68)"/>
      </g>
      <g id="Groupe_358" data-name="Groupe 358" transform="translate(23.371)">
        <path id="Tracé_890" data-name="Tracé 890" class="cls-1" d="M2086.01,3355.405c12.146-12.145,20.337-23.644,18.3-25.683s-13.538,6.153-25.683,18.3-13.581,16.887-11.542,18.927S2073.865,3367.551,2086.01,3355.405Z" transform="translate(-2064.946 -3328.021)"/>
        <path id="Tracé_891" data-name="Tracé 891" class="cls-2" d="M2068.115,3368.217a3.9,3.9,0,0,1-2.872-1.177c-1.623-1.624-1.55-4.083.218-7.308,1.83-3.338,5.534-7.775,11.323-13.564a141.21,141.21,0,0,1,16.805-14.616c7.509-5.351,9.728-4.778,10.823-3.683s1.666,3.315-3.683,10.823a141.222,141.222,0,0,1-14.617,16.806h0C2077.462,3364.152,2071.778,3368.217,2068.115,3368.217Zm34.273-38.321c-2.057.077-10.726,5.287-23.657,18.219-5.524,5.523-9.177,9.877-10.856,12.941-.763,1.392-1.5,3.223-.686,4.039s4.109,1.332,16.981-11.542h0C2097.1,3340.623,2102.311,3331.954,2102.388,3329.9Z" transform="translate(-2064.078 -3327.142)"/>
      </g>
      <g id="Groupe_359" data-name="Groupe 359" transform="translate(17.472 25.179)">
        <path id="Tracé_892" data-name="Tracé 892" class="cls-3" d="M2075.316,3376.888l-5.975-5.975a1.552,1.552,0,0,0-2.254.182l-9.986,11.473a1.527,1.527,0,0,0-.012,2.083l4.489,4.489a1.529,1.529,0,0,0,2.083-.012l11.473-9.987A1.551,1.551,0,0,0,2075.316,3376.888Z" transform="translate(-2055.313 -3369.132)"/>
        <path id="Tracé_893" data-name="Tracé 893" class="cls-2" d="M2061.711,3390.044a2.768,2.768,0,0,1-1.974-.8l-4.488-4.487a2.912,2.912,0,0,1-.053-3.959l9.987-11.473a3.059,3.059,0,0,1,2.192-1.057,2.75,2.75,0,0,1,2.072.805l5.975,5.974a2.764,2.764,0,0,1,.806,2.073,3.063,3.063,0,0,1-1.057,2.191l-11.473,9.986A3.022,3.022,0,0,1,2061.711,3390.044Zm5.767-19.032a.309.309,0,0,0-.221.115l-9.987,11.473a.243.243,0,0,0-.073.212l4.486,4.484a.248.248,0,0,0,.207-.076l11.473-9.987a.275.275,0,0,0,.112-.245l-5.973-5.973A.064.064,0,0,0,2067.478,3371.012Z" transform="translate(-2054.445 -3368.261)"/>
      </g>
      <g id="Groupe_360" data-name="Groupe 360" transform="translate(0 44.46)">
        <path id="Tracé_894" data-name="Tracé 894" class="cls-3" d="M2046.4,3411.449a32.15,32.15,0,0,1-8.686,2.914c-2.415.428-5.592.639-7.019-.788l-.654-.653.981-.338c3.4-1.17,4.285-4.634,5.14-7.983.157-.614.319-1.25.493-1.849h0a.7.7,0,0,1,.645-.5h0a5.849,5.849,0,0,0,.99-.115,4.9,4.9,0,0,1,3.439.393,2.221,2.221,0,0,1,.577.416,4.414,4.414,0,0,1,.9,1.645,5.754,5.754,0,0,0,1.3,2.251q.059.059.121.117.2.188.377.364h0c2.231,2.232,1.871,3.481,1.706,3.811l-.1.208Z" transform="translate(-2027.514 -3400.618)"/>
        <path id="Tracé_895" data-name="Tracé 895" class="cls-2" d="M2032.894,3415.187c-2.167,0-3.765-.5-4.77-1.509l-2.211-2.211,3.063-1.053c2.7-.929,3.454-3.889,4.254-7.022.163-.637.328-1.282.5-1.893a2.065,2.065,0,0,1,1.966-1.492h0a4.778,4.778,0,0,0,.752-.1,6.241,6.241,0,0,1,4.29.518,3.6,3.6,0,0,1,.934.673,5.612,5.612,0,0,1,1.21,2.13,4.54,4.54,0,0,0,.988,1.767l.085.081q.22.2.413.4c2.8,2.8,2.31,4.708,1.967,5.4l-.3.611-.6.314a33.66,33.66,0,0,1-9.079,3.046A20.059,20.059,0,0,1,2032.894,3415.187Zm-1.523-2.878a13.107,13.107,0,0,0,4.5-.172,30.872,30.872,0,0,0,7.981-2.623,4.621,4.621,0,0,0-1.425-2.09c-.107-.106-.22-.215-.341-.328-.053-.049-.105-.1-.155-.149a7.076,7.076,0,0,1-1.62-2.743,3.513,3.513,0,0,0-.581-1.158.859.859,0,0,0-.221-.158,3.557,3.557,0,0,0-2.589-.267c-.219.039-.443.077-.677.1-.121.441-.236.893-.349,1.334C2035.117,3407.124,2034.246,3410.531,2031.371,3412.309Z" transform="translate(-2025.913 -3399.747)"/>
      </g>
    </g>
  </g>
</svg>
