<svg id="Groupe_589" data-name="Groupe 589" xmlns="http://www.w3.org/2000/svg" width="120.503" height="98.604" viewBox="0 0 120.503 98.604">
  <defs>
    <style>
      .cls-1 {
        fill: #ffcdbb;
      }

      .cls-2 {
        fill: #ff4e00;
      }

      .cls-3 {
        fill: #fc3e00;
      }

      .cls-4 {
        fill: #fff;
      }
    </style>
  </defs>
  <g id="Groupe_522" data-name="Groupe 522" transform="translate(32.597)">
    <g id="Groupe_514" data-name="Groupe 514">
      <path id="Tracé_1002" data-name="Tracé 1002" class="cls-1" d="M1732.781,3045.981c6.816-5.154,10.952-11.917,10.952-19.324,0-16.16-19.678-29.261-43.953-29.261s-43.953,13.1-43.953,29.261,19.678,29.261,43.953,29.261a60.132,60.132,0,0,0,24.948-5.169,38.258,38.258,0,0,0,17.85,5.169A26.044,26.044,0,0,1,1732.781,3045.981Z" transform="translate(-1655.827 -2997.396)"/>
    </g>
    <g id="Groupe_520" data-name="Groupe 520" transform="translate(15.014 12.493)">
      <g id="Groupe_515" data-name="Groupe 515" transform="translate(0 13.24)">
        <path id="Tracé_1003" data-name="Tracé 1003" class="cls-2" d="M1708.777,3064.19H1684.2v-18.158h24.573Zm-21.6-2.975H1705.8v-12.207h-18.624Z" transform="translate(-1684.204 -3046.033)"/>
      </g>
      <g id="Groupe_516" data-name="Groupe 516" transform="translate(26.825 4.775)">
        <path id="Tracé_1004" data-name="Tracé 1004" class="cls-2" d="M1754.627,3057.434h-19.722v-27.4h19.722Zm-16.747-2.975h13.772v-21.451H1737.88Z" transform="translate(-1734.905 -3030.033)"/>
      </g>
      <g id="Groupe_517" data-name="Groupe 517" transform="translate(13.066)">
        <path id="Tracé_1005" data-name="Tracé 1005" class="cls-3" d="M1721.3,3045.815a12.4,12.4,0,1,1,12.4-12.4A12.418,12.418,0,0,1,1721.3,3045.815Zm0-22.43a10.027,10.027,0,1,0,10.027,10.027A10.039,10.039,0,0,0,1721.3,3023.385Z" transform="translate(-1708.899 -3021.008)"/>
      </g>
      <g id="Groupe_518" data-name="Groupe 518" transform="translate(1.084 1.763)">
        <path id="Tracé_1006" data-name="Tracé 1006" class="cls-3" d="M1690.752,3033.34a4.5,4.5,0,1,1,4.5-4.5A4.506,4.506,0,0,1,1690.752,3033.34Zm0-6.622a2.122,2.122,0,1,0,2.123,2.122A2.124,2.124,0,0,0,1690.752,3026.718Z" transform="translate(-1686.253 -3024.341)"/>
      </g>
      <g id="Groupe_519" data-name="Groupe 519" transform="translate(35.103 20.362)">
        <path id="Tracé_1007" data-name="Tracé 1007" class="cls-3" d="M1754.5,3067.393a3.95,3.95,0,1,1,3.949-3.949A3.953,3.953,0,0,1,1754.5,3067.393Zm0-5.522a1.572,1.572,0,1,0,1.572,1.573A1.574,1.574,0,0,0,1754.5,3061.871Z" transform="translate(-1750.551 -3059.494)"/>
      </g>
    </g>
    <g id="Groupe_521" data-name="Groupe 521" transform="translate(67.198 17.77)">
      <path id="Tracé_1008" data-name="Tracé 1008" class="cls-3" d="M1788.571,3046.22h-2.779q-.03-.1-.269-.742a3.256,3.256,0,0,1-.24-1.12,6.054,6.054,0,0,1,.254-1.761,5.818,5.818,0,0,1,.75-1.579,24.656,24.656,0,0,1,1.958-2.35,4.534,4.534,0,0,0,1.462-2.663q0-2.038-2.663-2.038a4.12,4.12,0,0,0-2.707,1.3l-1.5-2.808a7.775,7.775,0,0,1,4.934-1.47,5.962,5.962,0,0,1,3.936,1.31,4.3,4.3,0,0,1,1.579,3.478,5.072,5.072,0,0,1-.575,2.51,11.133,11.133,0,0,1-2.023,2.408,8.908,8.908,0,0,0-1.885,2.3,4.611,4.611,0,0,0-.436,2.008A9.039,9.039,0,0,0,1788.571,3046.22Zm-1.237,1.979a2.279,2.279,0,0,1,1.681.7,2.408,2.408,0,0,1,0,3.377,2.381,2.381,0,0,1-3.369,0,2.387,2.387,0,0,1,1.688-4.076Z" transform="translate(-1782.837 -3030.983)"/>
    </g>
  </g>
  <g id="Groupe_531" data-name="Groupe 531" transform="translate(0 38.88)">
    <g id="Groupe_523" data-name="Groupe 523">
      <path id="Tracé_1009" data-name="Tracé 1009" class="cls-4" d="M1612.4,3120.738c-6.816-5.051-10.952-11.678-10.952-18.937,0-15.836,19.678-28.673,43.953-28.673s43.953,12.837,43.953,28.673-19.679,28.674-43.953,28.674a61.175,61.175,0,0,1-24.947-5.066,38.883,38.883,0,0,1-17.851,5.066A25.827,25.827,0,0,0,1612.4,3120.738Z" transform="translate(-1597.621 -3071.94)"/>
      <path id="Tracé_1010" data-name="Tracé 1010" class="cls-3" d="M1599.212,3130.606h-.018l-4.978-.019,4.449-2.232a24.942,24.942,0,0,0,8.768-8.371c-6.832-5.368-10.58-12.166-10.58-19.241,0-16.466,20.251-29.861,45.142-29.861s45.142,13.4,45.142,29.861-20.25,29.862-45.142,29.862a62.616,62.616,0,0,1-24.878-4.923A39.839,39.839,0,0,1,1599.212,3130.606Zm17.764-7.591.56.252a59.961,59.961,0,0,0,24.459,4.96c23.581,0,42.765-12.329,42.765-27.485s-19.184-27.484-42.765-27.484-42.765,12.329-42.765,27.484c0,6.592,3.719,12.978,10.471,17.982l.841.622-.511.913a26.854,26.854,0,0,1-6.343,7.527,37.259,37.259,0,0,0,12.758-4.461Z" transform="translate(-1594.216 -3070.882)"/>
    </g>
    <g id="Groupe_529" data-name="Groupe 529" transform="translate(18.932 11.994)">
      <g id="Groupe_524" data-name="Groupe 524" transform="translate(0 13.99)">
        <rect id="Rectangle_182" data-name="Rectangle 182" class="cls-4" width="21.841" height="15.354" transform="translate(1.189 1.188)"/>
        <path id="Tracé_1011" data-name="Tracé 1011" class="cls-3" d="M1654.217,3137.724H1630v-17.73h24.218Zm-21.841-2.377h19.463v-12.977h-19.463Z" transform="translate(-1629.999 -3119.994)"/>
      </g>
      <g id="Groupe_525" data-name="Groupe 525" transform="translate(27.126 5.43)">
        <rect id="Rectangle_183" data-name="Rectangle 183" class="cls-4" width="16.936" height="24.7" transform="translate(1.188 1.189)"/>
        <path id="Tracé_1012" data-name="Tracé 1012" class="cls-3" d="M1700.583,3130.892H1681.27v-27.078h19.313Zm-16.936-2.378h14.559v-22.323h-14.559Z" transform="translate(-1681.27 -3103.814)"/>
      </g>
      <g id="Groupe_526" data-name="Groupe 526" transform="translate(12.611)">
        <path id="Tracé_1013" data-name="Tracé 1013" class="cls-2" d="M1666.665,3119.209a12.829,12.829,0,1,1,12.829-12.829A12.844,12.844,0,0,1,1666.665,3119.209Zm0-22.683a9.854,9.854,0,1,0,9.855,9.854A9.865,9.865,0,0,0,1666.665,3096.526Z" transform="translate(-1653.835 -3093.551)"/>
      </g>
      <g id="Groupe_527" data-name="Groupe 527" transform="translate(0.495 1.784)">
        <path id="Tracé_1014" data-name="Tracé 1014" class="cls-2" d="M1635.77,3106.593a4.835,4.835,0,1,1,4.836-4.835A4.84,4.84,0,0,1,1635.77,3106.593Zm0-6.7a1.86,1.86,0,1,0,1.86,1.861A1.862,1.862,0,0,0,1635.77,3099.9Z" transform="translate(-1630.935 -3096.922)"/>
      </g>
      <g id="Groupe_528" data-name="Groupe 528" transform="translate(34.896 20.592)">
        <path id="Tracé_1015" data-name="Tracé 1015" class="cls-2" d="M1700.235,3141.03a4.28,4.28,0,1,1,4.279-4.28A4.285,4.285,0,0,1,1700.235,3141.03Zm0-5.584a1.3,1.3,0,1,0,1.3,1.3A1.306,1.306,0,0,0,1700.235,3135.446Z" transform="translate(-1695.955 -3132.471)"/>
      </g>
    </g>
    <g id="Groupe_530" data-name="Groupe 530" transform="translate(73.239 18.051)">
      <path id="Tracé_1016" data-name="Tracé 1016" class="cls-3" d="M1735.032,3122.216a2.277,2.277,0,0,1,1.681.7,2.407,2.407,0,0,1,0,3.376,2.275,2.275,0,0,1-1.681.7,2.387,2.387,0,1,1,0-4.773Zm.64-1.077h-1.513a77.792,77.792,0,0,1-1.135-10.173V3105h3.784v5.952A77.666,77.666,0,0,1,1735.672,3121.139Z" transform="translate(-1732.645 -3105)"/>
    </g>
  </g>
</svg>
