<?xml version="1.0" encoding="utf-8"?>
<!-- Generator: Adobe Illustrator 24.1.2, SVG Export Plug-In . SVG Version: 6.00 Build 0)  -->
<svg version="1.1" id="Layer_1" xmlns="http://www.w3.org/2000/svg" xmlns:xlink="http://www.w3.org/1999/xlink" x="0px" y="0px"
	 viewBox="0 0 186.3 190.4" style="enable-background:new 0 0 186.3 190.4;" xml:space="preserve">
<style type="text/css">
	.st0{opacity:0.5;fill:#FFD8D4;enable-background:new    ;}
	.st1{fill:none;stroke:#E53917;stroke-width:5.535;stroke-miterlimit:10;}
	.st2{opacity:0.8;fill:#FF2F23;enable-background:new    ;}
	.st3{enable-background:new    ;}
	.st4{fill:#FFFFFF;}
	.st5{fill:none;stroke:#FF4E00;stroke-width:3.867;stroke-linecap:round;stroke-miterlimit:10;}
</style>
<g id="Groupe_62" transform="translate(0 1.934)">
	<path id="Rectangle_1" class="st0" d="M90.6,42.5L90.6,42.5c29,0,52.5,23.5,52.5,52.5l0,0c0,29-23.5,52.5-52.5,52.5l0,0
		c-29,0-52.5-23.5-52.5-52.5l0,0C38,66,61.5,42.5,90.6,42.5z"/>
	<circle id="Ellipse_1" class="st1" cx="90.6" cy="95.1" r="61.7"/>
	<path id="Tracé_86" class="st2" d="M186.3,117.6H0V69.4l186.3-0.8V117.6z"/>
	<g class="st3">
		<path class="st4" d="M31.5,97c-0.2,2.1-0.9,3.7-2.3,4.9c-1.4,1.2-3.2,1.8-5.5,1.8c-2.5,0-4.4-0.8-5.9-2.5c-1.4-1.7-2.1-4-2.1-6.9
			v-1.2c0-1.9,0.3-3.5,1-4.9s1.6-2.5,2.8-3.3s2.6-1.1,4.2-1.1c2.2,0,4,0.6,5.4,1.8c1.4,1.2,2.2,2.9,2.4,5h-4c-0.1-1.2-0.4-2.2-1-2.7
			c-0.6-0.6-1.5-0.8-2.7-0.8c-1.3,0-2.3,0.5-3,1.4c-0.7,1-1,2.4-1,4.4v1.5c0,2.1,0.3,3.6,1,4.6c0.6,1,1.6,1.5,3,1.5
			c1.2,0,2.2-0.3,2.8-0.8c0.6-0.6,1-1.4,1-2.6h3.9C31.5,97.1,31.5,97,31.5,97z"/>
		<path class="st4" d="M50,94.2c0,1.9-0.3,3.6-1,5s-1.6,2.5-2.9,3.3c-1.3,0.8-2.7,1.2-4.3,1.2s-3-0.4-4.3-1.2
			c-1.3-0.8-2.2-1.9-2.9-3.3s-1-3.1-1.1-4.9v-1c0-1.9,0.3-3.6,1-5s1.7-2.6,2.9-3.3s2.7-1.2,4.3-1.2s3,0.4,4.3,1.2s2.2,1.9,2.9,3.3
			s1,3.1,1,5L50,94.2L50,94.2z M46,93.3c0-2-0.4-3.6-1.1-4.6c-0.7-1.1-1.8-1.6-3.1-1.6s-2.4,0.5-3.1,1.6c-0.7,1-1.1,2.6-1.1,4.6v0.9
			c0,2,0.4,3.5,1.1,4.6c0.7,1.1,1.8,1.6,3.1,1.6s2.4-0.5,3.1-1.6c0.7-1,1.1-2.6,1.1-4.6V93.3z"/>
		<path class="st4" d="M60.1,96.3h-3.2v7.1h-4V84.1h7.2c2.3,0,4.1,0.5,5.3,1.5c1.2,1,1.9,2.5,1.9,4.3c0,1.3-0.3,2.4-0.9,3.3
			s-1.4,1.6-2.6,2.1l4.2,7.9v0.2h-4.3L60.1,96.3z M56.9,93.1h3.2c1,0,1.8-0.3,2.3-0.8s0.8-1.2,0.8-2.1s-0.3-1.6-0.8-2.2
			c-0.5-0.5-1.3-0.8-2.4-0.8h-3.2v5.9H56.9z"/>
		<path class="st4" d="M74.3,96.6v6.8h-4V84.1h7.6c1.5,0,2.7,0.3,3.8,0.8c1.1,0.5,2,1.3,2.5,2.3s0.9,2.1,0.9,3.3
			c0,1.9-0.6,3.4-1.9,4.5s-3.1,1.6-5.4,1.6C77.8,96.6,74.3,96.6,74.3,96.6z M74.3,93.4h3.6c1.1,0,1.9-0.2,2.4-0.7
			c0.6-0.5,0.8-1.2,0.8-2.1s-0.3-1.7-0.8-2.3S79,87.4,78,87.4h-3.7V93.4z"/>
		<path class="st4" d="M103.8,94.2c0,1.9-0.3,3.6-1,5s-1.6,2.5-2.9,3.3s-2.7,1.2-4.3,1.2c-1.6,0-3-0.4-4.3-1.2
			c-1.3-0.8-2.2-1.9-2.9-3.3c-0.7-1.4-1-3.1-1.1-4.9v-1c0-1.9,0.3-3.6,1-5s1.7-2.6,2.9-3.3s2.7-1.2,4.3-1.2c1.6,0,3,0.4,4.3,1.2
			c1.3,0.8,2.2,1.9,2.9,3.3c0.7,1.4,1,3.1,1,5L103.8,94.2L103.8,94.2z M99.7,93.3c0-2-0.4-3.6-1.1-4.6c-0.7-1.1-1.8-1.6-3.1-1.6
			c-1.3,0-2.4,0.5-3.1,1.6c-0.7,1-1.1,2.6-1.1,4.6v0.9c0,2,0.4,3.5,1.1,4.6s1.8,1.6,3.1,1.6c1.3,0,2.4-0.5,3.1-1.6
			c0.7-1,1.1-2.6,1.1-4.6V93.3z"/>
		<path class="st4" d="M113.8,96.3h-3.2v7.1h-4V84.1h7.2c2.3,0,4.1,0.5,5.3,1.5c1.2,1,1.9,2.5,1.9,4.3c0,1.3-0.3,2.4-0.9,3.3
			s-1.4,1.6-2.6,2.1l4.2,7.9v0.2h-4.3L113.8,96.3z M110.6,93.1h3.2c1,0,1.8-0.3,2.3-0.8s0.8-1.2,0.8-2.1s-0.3-1.6-0.8-2.2
			c-0.5-0.5-1.3-0.8-2.4-0.8h-3.2L110.6,93.1L110.6,93.1z"/>
		<path class="st4" d="M135,99.4h-7l-1.3,4h-4.2l7.2-19.4h3.7l7.2,19.4h-4.2L135,99.4z M129.1,96.2h4.8l-2.4-7.2L129.1,96.2z"/>
		<path class="st4" d="M155.3,87.3h-5.9v16.1h-4V87.3h-5.9v-3.2h15.8L155.3,87.3L155.3,87.3z"/>
		<path class="st4" d="M169.3,95h-7.7v5.2h9v3.2h-13V84.1h13v3.2h-9v4.6h7.7V95z"/>
	</g>
	<g id="Groupe_61" transform="translate(17.611)">
		<g id="Groupe_42" transform="translate(72.206)">
			<g id="Groupe_41">
				<line id="Ligne_11" class="st5" x1="0" y1="0" x2="0" y2="14.2"/>
			</g>
		</g>
		<g id="Groupe_44" transform="translate(32.812 10.531)">
			<g id="Groupe_43">
				<line id="Ligne_12" class="st5" x1="0" y1="0" x2="6.1" y2="12.8"/>
			</g>
		</g>
		<g id="Groupe_46" transform="translate(1.888 37.112)">
			<g id="Groupe_45">
				<line id="Ligne_13" class="st5" x1="0" y1="0" x2="11.1" y2="8.8"/>
			</g>
		</g>
		<g id="Groupe_48" transform="translate(0 145.873)">
			<g id="Groupe_47">
				<line id="Ligne_14" class="st5" x1="0" y1="8.8" x2="11.1" y2="0"/>
			</g>
		</g>
		<g id="Groupe_50" transform="translate(32.795 166.174)">
			<g id="Groupe_49">
				<line id="Ligne_15" class="st5" x1="0" y1="12.8" x2="6.1" y2="0"/>
			</g>
		</g>
		<g id="Groupe_52" transform="translate(72.858 172.375)">
			<g id="Groupe_51">
				<line id="Ligne_16" class="st5" x1="0" y1="14.2" x2="0" y2="0"/>
			</g>
		</g>
		<g id="Groupe_54" transform="translate(106.103 163.247)">
			<g id="Groupe_53">
				<line id="Ligne_17" class="st5" x1="6.1" y1="12.8" x2="0" y2="0"/>
			</g>
		</g>
		<g id="Groupe_56" transform="translate(132.096 140.599)">
			<g id="Groupe_55">
				<line id="Ligne_18" class="st5" x1="11.1" y1="8.8" x2="0" y2="0"/>
			</g>
		</g>
		<g id="Groupe_58" transform="translate(133.984 31.838)">
			<g id="Groupe_57">
				<line id="Ligne_19" class="st5" x1="11.1" y1="0" x2="0" y2="8.8"/>
			</g>
		</g>
		<g id="Groupe_60" transform="translate(106.12 7.604)">
			<g id="Groupe_59">
				<line id="Ligne_20" class="st5" x1="6.1" y1="0" x2="0" y2="12.8"/>
			</g>
		</g>
	</g>
</g>
</svg>
