<?xml version="1.0" encoding="utf-8"?>
<!-- Generator: Adobe Illustrator 24.1.2, SVG Export Plug-In . SVG Version: 6.00 Build 0)  -->
<svg version="1.1" id="Groupe_81" xmlns="http://www.w3.org/2000/svg" xmlns:xlink="http://www.w3.org/1999/xlink" x="0px" y="0px"
	 viewBox="0 0 126 153.3" style="enable-background:new 0 0 126 153.3;" xml:space="preserve">
<style type="text/css">
	.st0{fill:#FF2F23;}
	.st1{fill:#FFD8D4;}
	.st2{fill:none;stroke:#FF4E00;stroke-width:3.8;stroke-linecap:round;stroke-miterlimit:10;}
</style>
<g>
	<g>
		<g id="Groupe_67" transform="translate(87.744 54.259)">
			<path id="Tracé_87" class="st0" d="M-20.8,68c19.2,0,34.9-20.1,34.9-44.9S-1.4-21.6-20.8-21.6h-7.1V68H-20.8z"/>
			<g id="Groupe_65" transform="translate(0 0)">
				<ellipse id="Ellipse_2" class="st1" cx="-28.6" cy="23.3" rx="34.9" ry="44.9"/>
			</g>
			<g id="Groupe_66" transform="translate(19.607 10.071)">
				<path id="Tracé_88" class="st0" d="M-43.4,24.8c0.1-1.6-0.3-3.1-1.1-4.6c-1-1.3-2.4-2.4-4-3.1c-1.7-0.9-3.3-1.7-4.8-2.8
					c-1.3-0.9-2.4-2-3.4-3.3s-1.7-2.7-2.3-4.3c-0.6-1.9-0.9-3.8-0.9-5.8c0-3.3,1-6.7,2.8-9.5c1.9-2.4,4.4-4,7.4-4.3v-7.5h4.1v7.5
					c3,0.6,5.6,2.4,7.1,5.1c1.9,3.4,2.7,7.1,2.6,11h-7.5c0.1-2.1-0.3-4.3-1.3-6.3c-0.7-1.3-2-2-3.4-2c-1.3,0-2.6,0.6-3.3,1.6
					c-0.9,1.3-1.3,2.8-1.1,4.4c-0.1,1.4,0.3,3,1.1,4.3c1.1,1.4,2.6,2.4,4.1,3.3c1.7,0.9,3.4,2,5,3.1c1.3,1,2.4,2,3.3,3.3
					c0.9,1.3,1.6,2.7,2.1,4.3c0.6,1.9,0.7,3.7,0.7,5.6c0.1,3.4-0.9,6.7-2.7,9.5c-1.7,2.4-4.4,4-7.4,4.3v7h-4v-6.8
					c-3.3-0.4-6.3-2.3-8.1-5c-1.9-2.8-2.8-6.7-2.8-11.4h7.4c-0.1,2.1,0.4,4.4,1.4,6.3c0.9,1.4,2.4,2.3,4.1,2.1
					c1.4,0,2.7-0.6,3.6-1.6C-43.6,28-43.2,26.4-43.4,24.8z"/>
			</g>
		</g>
	</g>
	<line id="Ligne_2" class="st2" x1="122.3" y1="115.1" x2="112" y2="108.6"/>
	<line id="Ligne_3" class="st2" x1="123.1" y1="77.8" x2="117.7" y2="77.6"/>
	<line id="Ligne_4" class="st2" x1="122.7" y1="40.6" x2="112.2" y2="46.7"/>
	<line id="Ligne_5" class="st2" x1="93.3" y1="20.5" x2="90.2" y2="26"/>
	<line id="Ligne_6" class="st2" x1="62.6" y1="2.9" x2="62.5" y2="15.8"/>
	<line id="Ligne_10" class="st2" x1="92.2" y1="133.6" x2="89.8" y2="128.9"/>
	<line id="Ligne_2_2_" class="st2" x1="3.6" y1="38.1" x2="13.9" y2="44.7"/>
	<line id="Ligne_3_2_" class="st2" x1="2.9" y1="75.5" x2="8.3" y2="75.7"/>
	<line id="Ligne_4_2_" class="st2" x1="3.2" y1="112.7" x2="13.7" y2="106.6"/>
	<line id="Ligne_5_2_" class="st2" x1="32.7" y1="132.8" x2="35.8" y2="127.3"/>
	<line id="Ligne_6_2_" class="st2" x1="63.3" y1="150.4" x2="63.5" y2="137.5"/>
	<line id="Ligne_10_2_" class="st2" x1="33.8" y1="19.7" x2="36.2" y2="24.4"/>
</g>
</svg>
