<?xml version="1.0" encoding="utf-8"?>
<!-- Generator: Adobe Illustrator 24.1.2, SVG Export Plug-In . SVG Version: 6.00 Build 0)  -->
<svg version="1.1" id="Layer_1" xmlns="http://www.w3.org/2000/svg" xmlns:xlink="http://www.w3.org/1999/xlink" x="0px" y="0px"
	 viewBox="0 0 146.8 168.3" style="enable-background:new 0 0 146.8 168.3;" xml:space="preserve">
<style type="text/css">
	.st0{opacity:0.5;fill:#F7BCB2;enable-background:new    ;}
	.st1{fill:none;stroke:#FF4E00;stroke-width:3.624;stroke-miterlimit:10;}
	.st2{fill:none;stroke:#FFFFFF;stroke-width:3.624;stroke-linecap:round;stroke-miterlimit:10;}
	.st3{fill:none;stroke:#FF4E00;stroke-width:3.867;stroke-linecap:round;stroke-miterlimit:10;}
	.st4{fill:#FA4616;}
	.st5{fill:#E53917;}
</style>
<g id="Groupe_39" transform="translate(2.656 1.974)">
	<path id="Tracé_72" class="st0" d="M53.6,144.3c11.7-19.2,38.5-21.8,50-40.5c11.4-18.6,5.6-43-13.1-54.4
		c-18.6-11.4-43-5.6-54.4,13.1l0,0c-11.4,18.6-1,44.2-12.7,63.3"/>
	<path id="Tracé_73" class="st1" d="M44.4,136.5c5.5-9,17.2-22.1,31.5-30.8c3.7-2.3,6.5-5.7,7.9-9.8l1.9-5.8
		c0.2-0.6-0.1-1.2-0.7-1.4c-0.4-0.1-0.8,0-1.1,0.3l-6,6.1c-0.4,0.4-1.1,0.4-1.5,0c-0.3-0.3-0.4-0.7-0.3-1.1l2.7-8.1
		c0.2-0.6-0.1-1.2-0.7-1.4c-0.4-0.1-0.8,0-1.1,0.3l-6,6.1c-0.4,0.4-1.1,0.4-1.5,0c-0.3-0.3-0.4-0.7-0.3-1.1l2.7-8.1
		c0.2-0.6-0.1-1.2-0.7-1.4c-0.4-0.1-0.8,0-1.1,0.3l-6,6.1c-0.4,0.4-1.1,0.4-1.5,0c-0.3-0.3-0.4-0.7-0.3-1.1l2.7-8.1
		c0.2-0.6-0.1-1.2-0.7-1.4c-0.4-0.1-0.8,0-1.1,0.3l-6,6.1c-0.4,0.4-1.1,0.4-1.5,0c-0.3-0.3-0.4-0.7-0.3-1.1l2.7-8.1
		c0.2-0.6-0.1-1.2-0.7-1.4c-0.4-0.1-0.8,0-1.1,0.3l-4.3,4.4c-3,3.1-4.9,7.1-5.2,11.5c-1.3,16.6-7.6,33-13.2,42"/>
	<path id="Tracé_74" class="st2" d="M98.5,67.4c2.8,6.5,3.1,13.7,1,20.4"/>
	<line id="Ligne_2" class="st3" x1="141.1" y1="123" x2="122" y2="111.5"/>
	<line id="Ligne_3" class="st3" x1="140.1" y1="82" x2="130" y2="81.8"/>
	<line id="Ligne_4" class="st3" x1="141.6" y1="41.3" x2="122.1" y2="52"/>
	<line id="Ligne_5" class="st3" x1="106.1" y1="20.7" x2="100.3" y2="30.2"/>
	<line id="Ligne_6" class="st3" x1="71" y1="0" x2="70.6" y2="22.2"/>
	<line id="Ligne_7" class="st3" x1="35.8" y1="21.1" x2="40.8" y2="30.2"/>
	<line id="Ligne_8" class="st3" x1="0" y1="40.4" x2="19" y2="52"/>
	<line id="Ligne_9" class="st3" x1="3.9" y1="81.5" x2="11" y2="81.7"/>
	<line id="Ligne_10" class="st3" x1="104.7" y1="141.4" x2="100.2" y2="133.3"/>
	<g id="Groupe_38" transform="translate(8.821 123.425)">
		<path id="Tracé_75" class="st4" d="M10.2,8.8L9.1,4.7l4.1-1L47,18.6l1.1,4.1l-4.1,1L10.2,8.8z"/>
		<path id="Tracé_76" class="st5" d="M9.1,4.7l39,18l-4.1,1L10.2,8.8L9.1,4.7z"/>
		<path id="Tracé_77" class="st4" d="M7.2,14L6.1,9.9l4.1-1L44,23.8l1.1,4.1l-4.1,1L7.2,14z"/>
		<path id="Tracé_78" class="st5" d="M6.1,9.9l39,18l-4.1,1L7.2,14L6.1,9.9z"/>
		<path id="Tracé_79" class="st4" d="M4.1,19.1L3,15l4.1-1L41,28.9l1.1,4.1l-4.1,1L4.1,19.1z"/>
		<path id="Tracé_80" class="st5" d="M3,15l39,18l-4.1,1L4.1,19.1L3,15z"/>
		<path id="Tracé_81" class="st4" d="M1.1,24.3L0,20.2l4.1-1l33.8,14.9l1.1,4.1l-4.1,1L1.1,24.3z"/>
		<path id="Tracé_82" class="st5" d="M0,20.2l39,18l-4.1,1L1.1,24.3L0,20.2z"/>
		<path id="Tracé_83" class="st5" d="M47,18.6L15.4,0l-2.2,3.7L47,18.6z"/>
		<path id="Tracé_84" class="st4" d="M1.1,24.3l31.6,18.6l2.2-3.7L1.1,24.3z"/>
		<path id="Tracé_85" class="st5" d="M1.1,24.3l31.6,18.6L22,40.4l-13.5-8L1.1,24.3z"/>
	</g>
</g>
</svg>
