<svg xmlns="http://www.w3.org/2000/svg" width="27.944" height="41.314" viewBox="0 0 27.944 41.314">
  <path id="location-pin" d="M16.972.5A13.989,13.989,0,0,0,3,14.472C3,25.581,15.481,40.095,16.012,40.709l.96,1.105.96-1.108c.531-.612,13.012-15.125,13.012-26.235A13.989,13.989,0,0,0,16.972.5Zm0,37.382C14.061,34.264,5.54,22.947,5.54,14.472a11.432,11.432,0,1,1,22.864,0C28.4,22.939,19.883,34.264,16.972,37.882Zm0-30.678a7.621,7.621,0,1,0,7.621,7.621A7.63,7.63,0,0,0,16.972,7.2Zm0,12.7a5.081,5.081,0,1,1,5.081-5.081A5.086,5.086,0,0,1,16.972,19.906Z" transform="translate(-3 -0.5)"/>
</svg>
