<svg xmlns="http://www.w3.org/2000/svg" width="26.238" height="40.55" viewBox="0 0 26.238 40.55">
  <path id="mobile" d="M25.66,0H6.578A3.582,3.582,0,0,0,3,3.578V36.972A3.582,3.582,0,0,0,6.578,40.55H25.66a3.582,3.582,0,0,0,3.578-3.578V3.578A3.582,3.582,0,0,0,25.66,0ZM6.578,2.385H25.66a1.193,1.193,0,0,1,1.193,1.193V7.156H5.385V3.578A1.193,1.193,0,0,1,6.578,2.385ZM26.853,9.541V28.624H5.385V9.541ZM25.66,38.165H6.578a1.193,1.193,0,0,1-1.193-1.193V31.009H26.853v5.963A1.193,1.193,0,0,1,25.66,38.165Zm-8.349-3.578a1.193,1.193,0,1,1-1.193-1.193A1.193,1.193,0,0,1,17.312,34.587Z" transform="translate(-3)"/>
</svg>
